<svg width="40" height="40" viewBox="0 0 40 40" fill="none" xmlns="http://www.w3.org/2000/svg">
<path d="M34.1465 21.7139L29.8653 14.2986L29.5664 16.4387L27.4295 15.705L31.7209 23.138L31.7434 23.1757C32.0339 23.6443 32.1873 24.1856 32.1873 24.7414C32.1873 26.3704 30.8732 27.6984 29.2495 27.7207L29.2308 27.7194L29.1837 27.7211H23.3896V25.846L19.2349 29.1275L23.3896 32.409V30.5339H29.2077C29.2097 30.5339 29.2118 30.5339 29.2137 30.5339L29.23 30.5337C32.4138 30.5218 35 27.9279 35 24.7414C35.0001 23.6696 34.705 22.6233 34.1465 21.7139Z" fill="white"/>
<path d="M16.811 29.0726L18.2174 27.7212H10.7898C9.72881 27.7212 8.73994 27.1502 8.20946 26.2313C7.67897 25.3124 7.67897 24.1705 8.20946 23.2516L10.8287 18.7151L12.4341 19.6633L11.7212 14.4172L6.78293 16.3257L8.40654 17.2846L5.77334 21.8454C4.74219 23.6318 4.74219 25.8512 5.77353 27.6377C6.80487 29.424 8.7271 30.5339 10.7898 30.5339H18.2174L16.811 29.0726Z" fill="white"/>
<path d="M13.4339 14.2026L17.4176 7.30237C17.9482 6.38354 18.9371 5.81274 19.998 5.81274C21.059 5.81274 22.0479 6.38354 22.5784 7.30247L24.8009 11.1523L23.1163 12.0941L28.0081 14.1189L28.845 8.89129L27.2564 9.77946L25.0145 5.89619C23.983 4.10972 22.0607 3 19.998 3C17.9352 3 16.0131 4.10972 14.9818 5.8961L10.998 12.7963L13.0911 12.0839L13.4339 14.2026Z" fill="white"/>
<path d="M23.3294 15.8723V15.6383C23.3294 14.3118 22.4711 12.829 20 12.829C17.737 12.829 16.6707 13.9345 16.6707 16.1194V16.3796H18.7514C18.7514 15.0921 19.2197 14.6498 19.9347 14.6498H20.065C20.7543 14.6498 21.2483 15.105 21.2483 16.0283V16.1586C21.2483 16.7178 21.0275 17.0429 20.5722 17.5241L16.6707 21.8289V23.1424H23.3294V21.2978L19.8672 21.2915L22.1978 18.48C22.9524 17.6671 23.3294 17.0689 23.3294 15.8723Z" fill="white"/>
<path d="M14.6672 34.6382H12.9646V32.5951H11.7494V37.7026H12.9646V35.555H14.6672V37.7026H15.8824V32.5951H14.6672V34.6382Z" fill="white"/>
<path d="M18.515 32.5951H16.7224V37.7026H18.515C20.2552 37.7026 20.9829 37.048 20.9829 35.2799V35.018C20.9829 33.25 20.2551 32.5951 18.515 32.5951ZM19.7452 35.2799C19.7452 36.3014 19.4601 36.7859 18.4476 36.7859H17.9374V33.5119H18.4476C19.4601 33.5119 19.7452 33.9964 19.7452 35.018V35.2799Z" fill="white"/>
<path d="M23.6154 32.5951H21.6953V37.7026H22.9105V35.8692H23.6155C24.5681 35.8692 25.6482 35.6597 25.6482 34.2976V34.1667C25.6481 32.8112 24.568 32.5951 23.6154 32.5951ZM24.4181 34.2651C24.4181 34.8412 23.998 34.9525 23.668 34.9525H22.9105V33.5119H23.668C23.998 33.5119 24.4181 33.6233 24.4181 34.1995V34.2651Z" fill="white"/>
<path d="M26.263 37.7026H29.8411V36.7859H27.4782V35.555H29.466V34.6382H27.4782V33.5119H29.8411V32.5951H26.263V37.7026Z" fill="white"/>
</svg>
