<svg width="40" height="40" viewBox="0 0 40 40" fill="none" xmlns="http://www.w3.org/2000/svg">
<path d="M34.1465 21.7139L29.8654 14.2986L29.5664 16.4387L27.4295 15.7049L31.7209 23.1379L31.7434 23.1756C32.0339 23.6442 32.1873 24.1855 32.1873 24.7413C32.1873 26.3703 30.8732 27.6983 29.2493 27.7206L29.2308 27.7193L29.1837 27.721H23.3894V25.8459L19.2349 29.1274L23.3894 32.4089V30.5337H29.2077C29.2096 30.5337 29.2118 30.5337 29.2137 30.5337L29.2299 30.5336C32.4136 30.5216 35 27.9277 35 24.7413C35 23.6695 34.705 22.6232 34.1465 21.7139Z" fill="white"/>
<path d="M16.811 29.0725L18.2174 27.7211H10.7898C9.72863 27.7211 8.73995 27.1501 8.20938 26.2312C7.67889 25.3123 7.67889 24.1704 8.20919 23.2515L10.8284 18.715L12.4339 19.6632L11.721 14.4172L6.78276 16.3256L8.40636 17.2846L5.77336 21.8453C4.74221 23.6317 4.74221 25.8511 5.77336 27.6376C6.80488 29.4239 8.72711 30.5339 10.7898 30.5339H18.2174L16.811 29.0725Z" fill="white"/>
<path d="M13.4339 14.2026L17.4175 7.30236C17.9482 6.38353 18.9369 5.81273 19.998 5.81273C21.059 5.81273 22.0478 6.38353 22.5783 7.30245L24.8008 11.1522L23.1163 12.094L28.008 14.1188L28.8449 8.89127L27.2563 9.77953L25.0142 5.89618C23.9827 4.10972 22.0607 3 19.998 3C17.9352 3 16.0131 4.10972 14.9816 5.89608L10.998 12.7963L13.0911 12.0839L13.4339 14.2026Z" fill="white"/>
<path d="M21.3991 23.7986V21.7409H22.5495V19.8462H21.3991V13.4853H19.5983L15.4026 20.2251V21.7409H19.4763V23.7986H21.3991ZM17.6493 19.8733L19.5033 16.9228L19.4762 17.7079V19.8712L17.6493 19.8733Z" fill="white"/>
<path d="M12.7621 32.595H11.5469V37.7025H14.9223V36.7858H12.7621V32.595Z" fill="white"/>
<path d="M17.2473 32.595H15.4546V37.7025H17.2473C18.9876 37.7025 19.715 37.0478 19.715 35.2798V35.0179C19.7151 33.2499 18.9876 32.595 17.2473 32.595ZM18.4775 35.2798C18.4775 36.3012 18.1924 36.7858 17.1797 36.7858H16.6698V33.5118H17.1797C18.1924 33.5118 18.4775 33.9963 18.4775 35.0179V35.2798Z" fill="white"/>
<path d="M22.3479 32.595H20.4277V37.7025H21.6427V35.869H22.3479C23.3004 35.869 24.3805 35.6596 24.3805 34.2975V34.1666C24.3804 32.8111 23.3004 32.595 22.3479 32.595ZM23.1504 34.2649C23.1504 34.8411 22.7304 34.9524 22.4002 34.9524H21.6426V33.5118H22.4002C22.7303 33.5118 23.1504 33.6231 23.1504 34.1994V34.2649Z" fill="white"/>
<path d="M24.9954 37.7025H28.5732V36.7858H26.2104V35.5548H28.1982V34.6381H26.2104V33.5118H28.5732V32.595H24.9954V37.7025Z" fill="white"/>
</svg>
