<svg width="40" height="40" viewBox="0 0 40 40" fill="none" xmlns="http://www.w3.org/2000/svg">
<path d="M34.1466 21.714L29.8654 14.2986L29.5663 16.4388L27.4295 15.705L31.7209 23.1381L31.7434 23.1758C32.0338 23.6444 32.1872 24.1856 32.1872 24.7414C32.1872 26.3705 30.8731 27.6985 29.2492 27.7208L29.2308 27.7195L29.1837 27.7212H23.3893V25.846L19.2348 29.1276L23.3893 32.4091V30.5339H29.2077C29.2096 30.5339 29.2117 30.5339 29.2137 30.5339L29.2298 30.5337C32.4136 30.5218 35 27.9279 35 24.7414C35.0001 23.6697 34.7051 22.6234 34.1466 21.714Z" fill="white"/>
<path d="M10.7898 27.7213C9.72866 27.7213 8.73997 27.1503 8.2094 26.2313C7.67891 25.3124 7.67891 24.1705 8.20921 23.2516L10.8284 18.7151L12.434 19.6633L11.721 14.4172L6.78277 16.3258L8.40638 17.2846L5.77337 21.8454C4.74221 23.6318 4.74221 25.8513 5.77337 27.6377C6.80489 29.4241 8.72713 30.534 10.7898 30.534H18.2174L16.8111 29.0727L18.2174 27.7213H10.7898Z" fill="white"/>
<path d="M13.4339 14.2026L17.4175 7.30238C17.9482 6.38355 18.9368 5.81275 19.9981 5.81275C21.0591 5.81275 22.0479 6.38355 22.5784 7.30248L24.801 11.1523L23.1165 12.0941L28.0082 14.1189L28.8451 8.89131L27.2565 9.77957L25.0145 5.89619C23.9828 4.10972 22.0608 3 19.9981 3C17.9352 3 16.0132 4.10972 14.9817 5.8961L10.998 12.7963L13.0911 12.084L13.4339 14.2026Z" fill="white"/>
<path d="M19.9759 24.3401L23.6209 15.3794V14.0266H16.3792V16.7425H18.3057V15.9068L21.175 15.9123L17.6438 24.3401H19.9759Z" fill="white"/>
<path d="M12.1687 33.1671C10.8455 33.1671 10.223 33.8133 10.223 35.3576V35.5865C10.223 37.1307 10.8455 37.7769 12.1687 37.7769C13.4986 37.7769 14.1207 37.1307 14.1207 35.5865V35.3576C14.1207 33.8133 13.4985 33.1671 12.1687 33.1671ZM13.04 35.5865C13.04 36.4788 12.8565 36.9764 12.2015 36.9764H12.1425C11.4874 36.9764 11.2974 36.4787 11.2974 35.5865V35.3577C11.2974 34.4655 11.4873 33.9678 12.1425 33.9678H12.2015C12.8565 33.9678 13.04 34.4656 13.04 35.3577V35.5865Z" fill="white"/>
<path d="M14.3173 34.0421H15.4964V37.7027H16.5577V34.0421H17.7435V33.2415H14.3173V34.0421Z" fill="white"/>
<path d="M20.7699 35.026H19.2828V33.2415H18.2216V37.7027H19.2828V35.8267H20.7699V37.7027H21.8311V33.2415H20.7699V35.026Z" fill="white"/>
<path d="M22.5648 37.7027H25.6895V36.9021H23.6259V35.8267H25.3619V35.026H23.6259V34.0421H25.6895V33.2415H22.5648V37.7027Z" fill="white"/>
<path d="M27.9954 33.2415H26.3184V37.7027H27.3795V36.1013H27.9234L28.6243 37.7027H29.7708L28.9651 35.9696C29.4236 35.8039 29.7708 35.4492 29.7708 34.7286V34.6142C29.7707 33.4301 28.8273 33.2415 27.9954 33.2415ZM28.6964 34.6999C28.6964 35.2033 28.3296 35.3005 28.0414 35.3005H27.3795V34.0421H28.0414C28.3296 34.0421 28.6964 34.1393 28.6964 34.6427V34.6999Z" fill="white"/>
</svg>
