<svg width="40" height="40" viewBox="0 0 40 40" fill="none" xmlns="http://www.w3.org/2000/svg">
<path d="M34.1465 20.7139L29.8654 13.2986L29.5664 15.4387L27.4295 14.7049L31.7209 22.1379L31.7434 22.1756C32.0339 22.6442 32.1873 23.1855 32.1873 23.7413C32.1873 25.3703 30.8732 26.6983 29.2493 26.7206L29.2308 26.7193L29.1837 26.721H23.3894V24.8459L19.2349 28.1274L23.3894 31.4089V29.5337H29.2077H29.2137L29.2299 29.5336C32.4136 29.5216 35 26.9277 35 23.7413C35 22.6695 34.705 21.6232 34.1465 20.7139Z" fill="white"/>
<path d="M16.811 28.0725L18.2174 26.7211H10.7898C9.72863 26.7211 8.73995 26.1501 8.20938 25.2312C7.67889 24.3123 7.67889 23.1704 8.20919 22.2515L10.8284 17.715L12.4339 18.6632L11.721 13.4172L6.78276 15.3256L8.40636 16.2846L5.77336 20.8453C4.74221 22.6317 4.74221 24.8511 5.77336 26.6376C6.80488 28.4239 8.72711 29.5339 10.7898 29.5339H18.2174L16.811 28.0725Z" fill="white"/>
<path d="M13.4339 13.2026L17.4175 6.30236C17.9482 5.38353 18.9369 4.81273 19.998 4.81273C21.059 4.81273 22.0478 5.38353 22.5783 6.30245L24.8008 10.1522L23.1163 11.094L28.008 13.1188L28.8449 7.89127L27.2563 8.77953L25.0142 4.89618C23.9827 3.10972 22.0607 2 19.998 2C17.9352 2 16.0131 3.10972 14.9816 4.89608L10.998 11.7963L13.0911 11.0839L13.4339 13.2026Z" fill="white"/>
<path d="M21.2964 22.5643V12.2509H19.7261L17.4254 13.8307V16.0697L19.1849 14.8639V22.5643H21.2964Z" fill="white"/>
<path d="M13.6683 32.2982H11.7482V37.4056H12.9634V35.5722H13.6684C14.621 35.5722 15.7013 35.3628 15.7013 34.0006V33.8698C15.7011 32.5143 14.6209 32.2982 13.6683 32.2982ZM14.4709 33.9681C14.4709 34.5442 14.0509 34.6555 13.7208 34.6555H12.9633V33.215H13.7208C14.0509 33.215 14.4709 33.3263 14.4709 33.9026V33.9681Z" fill="white"/>
<path d="M16.3159 37.4056H19.8938V36.489H17.5311V35.258H19.5188V34.3413H17.5311V33.215H19.8938V32.2982H16.3159V37.4056Z" fill="white"/>
<path d="M20.3213 33.215H21.6714V37.4056H22.8866V33.215H24.2442V32.2982H20.3213V33.215Z" fill="white"/>
<path d="M24.7916 37.4056H28.3694V36.489H26.0068V35.258H27.9943V34.3413H26.0068V33.215H28.3694V32.2982H24.7916V37.4056Z" fill="white"/>
</svg>
