<svg width="40" height="40" viewBox="0 0 40 40" fill="none" xmlns="http://www.w3.org/2000/svg">
<path d="M34.1466 21.7139L29.8654 14.2986L29.5663 16.4387L27.4295 15.705L31.7209 23.138L31.7434 23.1757C32.0339 23.6443 32.1873 24.1856 32.1873 24.7414C32.1873 26.3704 30.8731 27.6984 29.2493 27.7207L29.2308 27.7194L29.1837 27.7211H23.3894V25.8459L19.2349 29.1275L23.3894 32.409V30.5338H29.2077C29.2096 30.5338 29.2118 30.5338 29.2137 30.5338L29.2298 30.5336C32.4136 30.5217 35 27.9278 35 24.7414C35.0001 23.6696 34.7051 22.6233 34.1466 21.7139Z" fill="white"/>
<path d="M16.811 29.0726L18.2174 27.7212H10.7898C9.72864 27.7212 8.73996 27.1502 8.20948 26.2313C7.679 25.3124 7.679 24.1705 8.20929 23.2516L10.8286 18.7151L12.4341 19.6633L11.7212 14.4172L6.78295 16.3257L8.40656 17.2846L5.77336 21.8454C4.74221 23.6317 4.74221 25.8512 5.77336 27.6377C6.80489 29.424 8.72712 30.5339 10.7898 30.5339H18.2174L16.811 29.0726Z" fill="white"/>
<path d="M13.434 14.2026L17.4176 7.30237C17.9482 6.38354 18.9369 5.81274 19.9981 5.81274C21.059 5.81274 22.0479 6.38354 22.5784 7.30246L24.8009 11.1523L23.1165 12.0941L28.0082 14.1189L28.8451 8.89129L27.2564 9.77955L25.0144 5.89619C23.9828 4.10972 22.0607 3 19.9981 3C17.9352 3 16.0132 4.10972 14.9816 5.89609L10.998 12.7963L13.0911 12.0839L13.434 14.2026Z" fill="white"/>
<path d="M20.064 22.4936H19.9339C19.2943 22.4936 18.7845 22.1699 18.6984 21.1989H16.6066C16.6549 23.1944 17.773 24.3144 19.9989 24.3144C22.2228 24.3144 23.3932 23.0529 23.3932 21.0631V20.8158C23.3932 18.826 22.2228 17.5645 20.1029 17.5645C19.5436 17.5645 19.0234 17.6815 18.5682 17.8765L18.5663 15.8217H22.9795V14.0009H16.6918L16.6822 19.5674L18.464 20.1785C18.737 19.6325 19.3485 19.3722 19.8817 19.3722H19.9597C20.714 19.3722 21.3123 19.7884 21.3123 20.8678V21.0107C21.3126 22.0904 20.7143 22.4936 20.064 22.4936Z" fill="white"/>
<path d="M17.7725 32.5951H15.8523V37.7026H17.0675V35.8691H17.7726C18.7251 35.8691 19.8054 35.6597 19.8054 34.2976V34.1667C19.8053 32.8112 18.725 32.5951 17.7725 32.5951ZM18.5751 34.265C18.5751 34.8412 18.1551 34.9525 17.8251 34.9525H17.0675V33.5119H17.8251C18.1551 33.5119 18.5751 33.6232 18.5751 34.1995V34.265Z" fill="white"/>
<path d="M22.3402 32.5951H20.42V37.7026H21.6352V35.8691H22.3403C23.2929 35.8691 24.3732 35.6597 24.3732 34.2976V34.1667C24.373 32.8112 23.2928 32.5951 22.3402 32.5951ZM23.1428 34.265C23.1428 34.8412 22.7227 34.9525 22.3927 34.9525H21.6351V33.5119H22.3927C22.7227 33.5119 23.1428 33.6232 23.1428 34.1995V34.265Z" fill="white"/>
</svg>
