<svg width="40" height="40" viewBox="0 0 40 40" fill="none" xmlns="http://www.w3.org/2000/svg">
<path d="M13.4338 13.2026L17.4174 6.30245C17.9481 5.38344 18.9368 4.81264 19.9979 4.81264C21.0589 4.81264 22.0477 5.38344 22.5783 6.30245L24.8008 10.1522L23.1163 11.094L28.008 13.1188L28.8449 7.89127L27.2563 8.77944L25.0141 4.89608C23.9826 3.10972 22.0606 2 19.9979 2C17.9351 2 16.013 3.10972 14.9815 4.89618L10.9979 11.7963L13.091 11.084L13.4338 13.2026Z" fill="white"/>
<path d="M34.1464 20.7139L29.8653 13.2986L29.5663 15.4387L27.4294 14.7049L31.7209 22.138L31.7434 22.1756C32.0339 22.6442 32.1873 23.1857 32.1873 23.7413C32.1873 25.3703 30.8732 26.6983 29.2493 26.7206L29.2308 26.7194L29.1837 26.721H23.3894V24.8459L19.2349 28.1274L23.3894 31.4089V29.5337H29.2077C29.2096 29.5337 29.2118 29.5337 29.2137 29.5337L29.2299 29.5336C32.4136 29.5216 35 26.9277 35 23.7413C34.9999 22.6695 34.705 21.6232 34.1464 20.7139Z" fill="white"/>
<path d="M16.8109 28.0725L18.2173 26.7211H10.7897C9.72853 26.7211 8.73986 26.1501 8.20938 25.2312C7.67889 24.3123 7.67889 23.1705 8.20919 22.2515L10.8285 17.715L12.434 18.6632L11.7212 13.4172L6.78294 15.3256L8.40655 16.2846L5.77336 20.8453C4.74221 22.6317 4.74221 24.8512 5.77336 26.6376C6.80488 28.424 8.72711 29.5339 10.7898 29.5339H18.2174L16.8109 28.0725Z" fill="white"/>
<path d="M22.6329 14.3042V12.4853C20.7076 12.5144 19.1225 12.9455 18.0609 14.3649C16.9988 15.7855 16.6532 17.3851 16.6532 18.9721V19.1384C16.6532 21.3396 17.8433 22.7986 20.0064 22.7986C22.2077 22.7986 23.3465 21.5828 23.3465 19.6121V19.4841C23.3465 17.5132 22.2333 16.3358 20.5566 16.3358C19.9166 16.3358 19.4048 16.5277 18.9823 16.8092C19.1362 16.3101 19.3535 15.8751 19.648 15.5169C20.3168 14.6896 21.2757 14.3371 22.6329 14.3042ZM20.0776 18.1276H20.1417C20.8325 18.1276 21.3448 18.5115 21.3448 19.4329V19.6759C21.3448 20.5336 20.7817 21.007 20.0905 21.007H20.0138C19.3096 21.007 18.7465 20.4183 18.7465 19.3049V18.6289C18.7465 18.6288 19.566 18.1276 20.0776 18.1276Z" fill="white"/>
<path d="M17.7348 31.5951H15.8146V36.7025H17.0298V34.869H17.7349C18.6875 34.869 19.7677 34.6596 19.7677 33.2975V33.1666C19.7676 31.8112 18.6874 31.5951 17.7348 31.5951ZM18.5374 33.2649C18.5374 33.8411 18.1173 33.9524 17.7873 33.9524H17.0297V32.5119H17.7873C18.1173 32.5119 18.5374 32.6232 18.5374 33.1994V33.2649Z" fill="white"/>
<path d="M22.4302 33.6905C21.5752 33.5922 21.4025 33.3958 21.4025 33.0226V32.9899C21.4025 32.6625 21.6876 32.4267 22.175 32.4267H22.2426C22.8578 32.4267 23.0903 32.7344 23.0903 33.4023H24.3053V33.2648C24.3053 32.0665 23.6754 31.5099 22.2351 31.5099C20.9 31.5099 20.1725 32.1057 20.1725 33.029V33.1011C20.1725 34.0244 20.7725 34.4172 22.0476 34.5679C22.8953 34.6661 23.1126 34.869 23.1126 35.2358V35.2685C23.1126 35.6091 22.8352 35.8709 22.2727 35.8709H22.2051C21.6425 35.8709 21.3426 35.6025 21.3426 34.9608H20.1274V35.0198C20.1274 36.2507 20.8549 36.7876 22.2351 36.7876C23.6078 36.7876 24.3503 36.218 24.3503 35.2358V35.1703C24.3503 34.2208 23.7052 33.841 22.4302 33.6905Z" fill="white"/>
</svg>
